          <svg
              width="334"
              height="117"
              viewBox="0 0 334 117"
              fill="none"
              xmlns="http://www.w3.org/2000/svg"
            >
              <path
                d="M194.584 11.8907C127.609 -13.1369 142.129 9.57962 50.1754 24.8024C12.9941 30.9577 -6.56538 54.9876 2.05544 91.5193C15.6282 149.035 123.615 86.1795 181.456 99.4239C239.298 112.668 342.524 109.772 333.252 45.5356C323.981 -18.7011 231.501 25.6862 194.584 11.8907Z"
                fill="#4C3026"
              />
              <path
                d="M89.1393 44.241C91.0393 44.241 92.681 44.5993 94.0643 45.316C95.4643 46.016 96.531 47.0243 97.2643 48.341C98.0143 49.6577 98.3893 51.2077 98.3893 52.991C98.3893 54.7743 98.0143 56.3243 97.2643 57.641C96.531 58.941 95.4643 59.941 94.0643 60.641C92.681 61.3243 91.0393 61.666 89.1393 61.666H83.7143V44.241H89.1393ZM89.1393 59.791C91.3893 59.791 93.106 59.1993 94.2893 58.016C95.4726 56.816 96.0643 55.141 96.0643 52.991C96.0643 50.8243 95.4643 49.1327 94.2643 47.916C93.081 46.6993 91.3726 46.091 89.1393 46.091H85.9893V59.791H89.1393ZM102.565 45.741C102.132 45.741 101.765 45.591 101.465 45.291C101.165 44.991 101.015 44.6243 101.015 44.191C101.015 43.7577 101.165 43.391 101.465 43.091C101.765 42.791 102.132 42.641 102.565 42.641C102.982 42.641 103.332 42.791 103.615 43.091C103.915 43.391 104.065 43.7577 104.065 44.191C104.065 44.6243 103.915 44.991 103.615 45.291C103.332 45.591 102.982 45.741 102.565 45.741ZM103.665 47.966V61.666H101.39V47.966H103.665ZM112.392 61.891C111.342 61.891 110.401 61.716 109.567 61.366C108.734 60.9993 108.076 60.4993 107.592 59.866C107.109 59.216 106.842 58.4743 106.792 57.641H109.142C109.209 58.3243 109.526 58.8827 110.092 59.316C110.676 59.7493 111.434 59.966 112.367 59.966C113.234 59.966 113.917 59.7743 114.417 59.391C114.917 59.0077 115.167 58.5243 115.167 57.941C115.167 57.341 114.901 56.8993 114.367 56.616C113.834 56.316 113.009 56.0243 111.892 55.741C110.876 55.4743 110.042 55.2077 109.392 54.941C108.759 54.6577 108.209 54.2493 107.742 53.716C107.292 53.166 107.067 52.4493 107.067 51.566C107.067 50.866 107.276 50.2243 107.692 49.641C108.109 49.0577 108.701 48.5993 109.467 48.266C110.234 47.916 111.109 47.741 112.092 47.741C113.609 47.741 114.834 48.1243 115.767 48.891C116.701 49.6577 117.201 50.7077 117.267 52.041H114.992C114.942 51.3243 114.651 50.7493 114.117 50.316C113.601 49.8827 112.901 49.666 112.017 49.666C111.201 49.666 110.551 49.841 110.067 50.191C109.584 50.541 109.342 50.9993 109.342 51.566C109.342 52.016 109.484 52.391 109.767 52.691C110.067 52.9743 110.434 53.2077 110.867 53.391C111.317 53.5577 111.934 53.7493 112.717 53.966C113.701 54.2327 114.501 54.4993 115.117 54.766C115.734 55.016 116.259 55.3993 116.692 55.916C117.142 56.4327 117.376 57.1077 117.392 57.941C117.392 58.691 117.184 59.366 116.767 59.966C116.351 60.566 115.759 61.041 114.992 61.391C114.242 61.7243 113.376 61.891 112.392 61.891ZM119.754 54.791C119.754 53.3743 120.037 52.141 120.604 51.091C121.171 50.0243 121.954 49.1993 122.954 48.616C123.971 48.0327 125.129 47.741 126.429 47.741C128.112 47.741 129.496 48.1493 130.579 48.966C131.679 49.7827 132.404 50.916 132.754 52.366H130.304C130.071 51.5327 129.612 50.8743 128.929 50.391C128.262 49.9077 127.429 49.666 126.429 49.666C125.129 49.666 124.079 50.116 123.279 51.016C122.479 51.8993 122.079 53.1577 122.079 54.791C122.079 56.441 122.479 57.716 123.279 58.616C124.079 59.516 125.129 59.966 126.429 59.966C127.429 59.966 128.262 59.7327 128.929 59.266C129.596 58.7993 130.054 58.1327 130.304 57.266H132.754C132.387 58.666 131.654 59.791 130.554 60.641C129.454 61.4743 128.079 61.891 126.429 61.891C125.129 61.891 123.971 61.5993 122.954 61.016C121.954 60.4327 121.171 59.6077 120.604 58.541C120.037 57.4743 119.754 56.2243 119.754 54.791ZM141.765 61.891C140.481 61.891 139.315 61.5993 138.265 61.016C137.231 60.4327 136.415 59.6077 135.815 58.541C135.231 57.4577 134.94 56.2077 134.94 54.791C134.94 53.391 135.24 52.1577 135.84 51.091C136.456 50.0077 137.29 49.1827 138.34 48.616C139.39 48.0327 140.565 47.741 141.865 47.741C143.165 47.741 144.34 48.0327 145.39 48.616C146.44 49.1827 147.265 49.9993 147.865 51.066C148.481 52.1327 148.79 53.3743 148.79 54.791C148.79 56.2077 148.473 57.4577 147.84 58.541C147.223 59.6077 146.381 60.4327 145.315 61.016C144.248 61.5993 143.065 61.891 141.765 61.891ZM141.765 59.891C142.581 59.891 143.348 59.6993 144.065 59.316C144.781 58.9327 145.356 58.3577 145.79 57.591C146.24 56.8243 146.465 55.891 146.465 54.791C146.465 53.691 146.248 52.7577 145.815 51.991C145.381 51.2243 144.815 50.6577 144.115 50.291C143.415 49.9077 142.656 49.716 141.84 49.716C141.006 49.716 140.24 49.9077 139.54 50.291C138.856 50.6577 138.306 51.2243 137.89 51.991C137.473 52.7577 137.265 53.691 137.265 54.791C137.265 55.9077 137.465 56.8493 137.865 57.616C138.281 58.3827 138.831 58.9577 139.515 59.341C140.198 59.7077 140.948 59.891 141.765 59.891ZM156.881 59.566L161.131 47.966H163.556L158.181 61.666H155.531L150.156 47.966H152.606L156.881 59.566ZM178.294 54.291C178.294 54.7243 178.269 55.1827 178.219 55.666H167.269C167.353 57.016 167.811 58.0743 168.644 58.841C169.494 59.591 170.519 59.966 171.719 59.966C172.703 59.966 173.519 59.741 174.169 59.291C174.836 58.8243 175.303 58.2077 175.569 57.441H178.019C177.653 58.7577 176.919 59.8327 175.819 60.666C174.719 61.4827 173.353 61.891 171.719 61.891C170.419 61.891 169.253 61.5993 168.219 61.016C167.203 60.4327 166.403 59.6077 165.819 58.541C165.236 57.4577 164.944 56.2077 164.944 54.791C164.944 53.3743 165.228 52.1327 165.794 51.066C166.361 49.9993 167.153 49.1827 168.169 48.616C169.203 48.0327 170.386 47.741 171.719 47.741C173.019 47.741 174.169 48.0243 175.169 48.591C176.169 49.1577 176.936 49.941 177.469 50.941C178.019 51.9243 178.294 53.041 178.294 54.291ZM175.944 53.816C175.944 52.9493 175.753 52.2077 175.369 51.591C174.986 50.9577 174.461 50.4827 173.794 50.166C173.144 49.8327 172.419 49.666 171.619 49.666C170.469 49.666 169.486 50.0327 168.669 50.766C167.869 51.4993 167.411 52.516 167.294 53.816H175.944ZM183.572 50.191C183.972 49.4077 184.539 48.7993 185.272 48.366C186.022 47.9327 186.931 47.716 187.997 47.716V50.066H187.397C184.847 50.066 183.572 51.4493 183.572 54.216V61.666H181.297V47.966H183.572V50.191ZM213.764 47.716C214.83 47.716 215.78 47.941 216.614 48.391C217.447 48.8243 218.105 49.4827 218.589 50.366C219.072 51.2493 219.314 52.3243 219.314 53.591V61.666H217.064V53.916C217.064 52.5493 216.722 51.5077 216.039 50.791C215.372 50.0577 214.464 49.691 213.314 49.691C212.13 49.691 211.189 50.0743 210.489 50.841C209.789 51.591 209.439 52.6827 209.439 54.116V61.666H207.189V53.916C207.189 52.5493 206.847 51.5077 206.164 50.791C205.497 50.0577 204.589 49.691 203.439 49.691C202.255 49.691 201.314 50.0743 200.614 50.841C199.914 51.591 199.564 52.6827 199.564 54.116V61.666H197.289V47.966H199.564V49.941C200.014 49.2243 200.614 48.6743 201.364 48.291C202.13 47.9077 202.972 47.716 203.889 47.716C205.039 47.716 206.055 47.9743 206.939 48.491C207.822 49.0077 208.48 49.766 208.914 50.766C209.297 49.7993 209.93 49.0493 210.814 48.516C211.697 47.9827 212.68 47.716 213.764 47.716ZM229.02 61.891C227.737 61.891 226.57 61.5993 225.52 61.016C224.487 60.4327 223.67 59.6077 223.07 58.541C222.487 57.4577 222.195 56.2077 222.195 54.791C222.195 53.391 222.495 52.1577 223.095 51.091C223.712 50.0077 224.545 49.1827 225.595 48.616C226.645 48.0327 227.82 47.741 229.12 47.741C230.42 47.741 231.595 48.0327 232.645 48.616C233.695 49.1827 234.52 49.9993 235.12 51.066C235.737 52.1327 236.045 53.3743 236.045 54.791C236.045 56.2077 235.729 57.4577 235.095 58.541C234.479 59.6077 233.637 60.4327 232.57 61.016C231.504 61.5993 230.32 61.891 229.02 61.891ZM229.02 59.891C229.837 59.891 230.604 59.6993 231.32 59.316C232.037 58.9327 232.612 58.3577 233.045 57.591C233.495 56.8243 233.72 55.891 233.72 54.791C233.72 53.691 233.504 52.7577 233.07 51.991C232.637 51.2243 232.07 50.6577 231.37 50.291C230.67 49.9077 229.912 49.716 229.095 49.716C228.262 49.716 227.495 49.9077 226.795 50.291C226.112 50.6577 225.562 51.2243 225.145 51.991C224.729 52.7577 224.52 53.691 224.52 54.791C224.52 55.9077 224.72 56.8493 225.12 57.616C225.537 58.3827 226.087 58.9577 226.77 59.341C227.454 59.7077 228.204 59.891 229.02 59.891ZM241.312 50.191C241.712 49.4077 242.278 48.7993 243.012 48.366C243.762 47.9327 244.67 47.716 245.737 47.716V50.066H245.137C242.587 50.066 241.312 51.4493 241.312 54.216V61.666H239.037V47.966H241.312V50.191ZM260.863 54.291C260.863 54.7243 260.838 55.1827 260.788 55.666H249.838C249.921 57.016 250.379 58.0743 251.213 58.841C252.063 59.591 253.088 59.966 254.288 59.966C255.271 59.966 256.088 59.741 256.738 59.291C257.404 58.8243 257.871 58.2077 258.138 57.441H260.588C260.221 58.7577 259.488 59.8327 258.388 60.666C257.288 61.4827 255.921 61.891 254.288 61.891C252.988 61.891 251.821 61.5993 250.788 61.016C249.771 60.4327 248.971 59.6077 248.388 58.541C247.804 57.4577 247.513 56.2077 247.513 54.791C247.513 53.3743 247.796 52.1327 248.363 51.066C248.929 49.9993 249.721 49.1827 250.738 48.616C251.771 48.0327 252.954 47.741 254.288 47.741C255.588 47.741 256.738 48.0243 257.738 48.591C258.738 49.1577 259.504 49.941 260.038 50.941C260.588 51.9243 260.863 53.041 260.863 54.291ZM258.513 53.816C258.513 52.9493 258.321 52.2077 257.938 51.591C257.554 50.9577 257.029 50.4827 256.363 50.166C255.713 49.8327 254.988 49.666 254.188 49.666C253.038 49.666 252.054 50.0327 251.238 50.766C250.438 51.4993 249.979 52.516 249.863 53.816H258.513Z"
                fill="white"
              />
              <path
                d="M81.7893 64.166H261.938V65.416H81.7893V64.166Z"
                fill="white"
              />
            </svg>