<svg width="338" height="136" viewBox="0 0 338 136" fill="none" xmlns="http://www.w3.org/2000/svg">
<path d="M196.375 18.2157C129.4 -6.81189 143.92 15.9046 51.9664 31.1274C14.7851 37.2827 -4.77437 61.3126 3.84646 97.8443C17.4192 155.36 125.406 92.5045 183.247 105.749C241.089 118.993 344.315 116.097 335.043 51.8606C325.772 -12.3761 233.292 32.0113 196.375 18.2157Z" fill="#845B4E"/>
<path d="M90.9303 50.5661C92.8303 50.5661 94.472 50.9244 95.8553 51.6411C97.2553 52.3411 98.322 53.3494 99.0553 54.6661C99.8053 55.9828 100.18 57.5328 100.18 59.3161C100.18 61.0994 99.8053 62.6494 99.0553 63.9661C98.322 65.2661 97.2553 66.2661 95.8553 66.9661C94.472 67.6494 92.8303 67.9911 90.9303 67.9911H85.5053V50.5661H90.9303ZM90.9303 66.1161C93.1803 66.1161 94.897 65.5244 96.0803 64.3411C97.2637 63.1411 97.8553 61.4661 97.8553 59.3161C97.8553 57.1494 97.2553 55.4578 96.0553 54.2411C94.872 53.0244 93.1637 52.4161 90.9303 52.4161H87.7803V66.1161H90.9303ZM104.356 52.0661C103.923 52.0661 103.556 51.9161 103.256 51.6161C102.956 51.3161 102.806 50.9494 102.806 50.5161C102.806 50.0828 102.956 49.7161 103.256 49.4161C103.556 49.1161 103.923 48.9661 104.356 48.9661C104.773 48.9661 105.123 49.1161 105.406 49.4161C105.706 49.7161 105.856 50.0828 105.856 50.5161C105.856 50.9494 105.706 51.3161 105.406 51.6161C105.123 51.9161 104.773 52.0661 104.356 52.0661ZM105.456 54.2911V67.9911H103.181V54.2911H105.456ZM114.183 68.2161C113.133 68.2161 112.192 68.0411 111.358 67.6911C110.525 67.3244 109.867 66.8244 109.383 66.1911C108.9 65.5411 108.633 64.7994 108.583 63.9661H110.933C111 64.6494 111.317 65.2078 111.883 65.6411C112.467 66.0744 113.225 66.2911 114.158 66.2911C115.025 66.2911 115.708 66.0994 116.208 65.7161C116.708 65.3328 116.958 64.8494 116.958 64.2661C116.958 63.6661 116.692 63.2244 116.158 62.9411C115.625 62.6411 114.8 62.3494 113.683 62.0661C112.667 61.7994 111.833 61.5328 111.183 61.2661C110.55 60.9828 110 60.5744 109.533 60.0411C109.083 59.4911 108.858 58.7744 108.858 57.8911C108.858 57.1911 109.067 56.5494 109.483 55.9661C109.9 55.3828 110.492 54.9244 111.258 54.5911C112.025 54.2411 112.9 54.0661 113.883 54.0661C115.4 54.0661 116.625 54.4494 117.558 55.2161C118.492 55.9828 118.992 57.0328 119.058 58.3661H116.783C116.733 57.6494 116.442 57.0744 115.908 56.6411C115.392 56.2078 114.692 55.9911 113.808 55.9911C112.992 55.9911 112.342 56.1661 111.858 56.5161C111.375 56.8661 111.133 57.3244 111.133 57.8911C111.133 58.3411 111.275 58.7161 111.558 59.0161C111.858 59.2994 112.225 59.5328 112.658 59.7161C113.108 59.8828 113.725 60.0744 114.508 60.2911C115.492 60.5578 116.292 60.8244 116.908 61.0911C117.525 61.3411 118.05 61.7244 118.483 62.2411C118.933 62.7578 119.167 63.4328 119.183 64.2661C119.183 65.0161 118.975 65.6911 118.558 66.2911C118.142 66.8911 117.55 67.3661 116.783 67.7161C116.033 68.0494 115.167 68.2161 114.183 68.2161ZM121.545 61.1161C121.545 59.6994 121.828 58.4661 122.395 57.4161C122.962 56.3494 123.745 55.5244 124.745 54.9411C125.762 54.3578 126.92 54.0661 128.22 54.0661C129.903 54.0661 131.287 54.4744 132.37 55.2911C133.47 56.1078 134.195 57.2411 134.545 58.6911H132.095C131.862 57.8578 131.403 57.1994 130.72 56.7161C130.053 56.2328 129.22 55.9911 128.22 55.9911C126.92 55.9911 125.87 56.4411 125.07 57.3411C124.27 58.2244 123.87 59.4828 123.87 61.1161C123.87 62.7661 124.27 64.0411 125.07 64.9411C125.87 65.8411 126.92 66.2911 128.22 66.2911C129.22 66.2911 130.053 66.0578 130.72 65.5911C131.387 65.1244 131.845 64.4578 132.095 63.5911H134.545C134.178 64.9911 133.445 66.1161 132.345 66.9661C131.245 67.7994 129.87 68.2161 128.22 68.2161C126.92 68.2161 125.762 67.9244 124.745 67.3411C123.745 66.7578 122.962 65.9328 122.395 64.8661C121.828 63.7994 121.545 62.5494 121.545 61.1161ZM143.556 68.2161C142.272 68.2161 141.106 67.9244 140.056 67.3411C139.022 66.7578 138.206 65.9328 137.606 64.8661C137.022 63.7828 136.731 62.5328 136.731 61.1161C136.731 59.7161 137.031 58.4828 137.631 57.4161C138.247 56.3328 139.081 55.5078 140.131 54.9411C141.181 54.3578 142.356 54.0661 143.656 54.0661C144.956 54.0661 146.131 54.3578 147.181 54.9411C148.231 55.5078 149.056 56.3244 149.656 57.3911C150.272 58.4578 150.581 59.6994 150.581 61.1161C150.581 62.5328 150.264 63.7828 149.631 64.8661C149.014 65.9328 148.172 66.7578 147.106 67.3411C146.039 67.9244 144.856 68.2161 143.556 68.2161ZM143.556 66.2161C144.372 66.2161 145.139 66.0244 145.856 65.6411C146.572 65.2578 147.147 64.6828 147.581 63.9161C148.031 63.1494 148.256 62.2161 148.256 61.1161C148.256 60.0161 148.039 59.0828 147.606 58.3161C147.172 57.5494 146.606 56.9828 145.906 56.6161C145.206 56.2328 144.447 56.0411 143.631 56.0411C142.797 56.0411 142.031 56.2328 141.331 56.6161C140.647 56.9828 140.097 57.5494 139.681 58.3161C139.264 59.0828 139.056 60.0161 139.056 61.1161C139.056 62.2328 139.256 63.1744 139.656 63.9411C140.072 64.7078 140.622 65.2828 141.306 65.6661C141.989 66.0328 142.739 66.2161 143.556 66.2161ZM158.672 65.8911L162.922 54.2911H165.347L159.972 67.9911H157.322L151.947 54.2911H154.397L158.672 65.8911ZM180.085 60.6161C180.085 61.0494 180.06 61.5078 180.01 61.9911H169.06C169.144 63.3411 169.602 64.3994 170.435 65.1661C171.285 65.9161 172.31 66.2911 173.51 66.2911C174.494 66.2911 175.31 66.0661 175.96 65.6161C176.627 65.1494 177.094 64.5328 177.36 63.7661H179.81C179.444 65.0828 178.71 66.1578 177.61 66.9911C176.51 67.8078 175.144 68.2161 173.51 68.2161C172.21 68.2161 171.044 67.9244 170.01 67.3411C168.994 66.7578 168.194 65.9328 167.61 64.8661C167.027 63.7828 166.735 62.5328 166.735 61.1161C166.735 59.6994 167.019 58.4578 167.585 57.3911C168.152 56.3244 168.944 55.5078 169.96 54.9411C170.994 54.3578 172.177 54.0661 173.51 54.0661C174.81 54.0661 175.96 54.3494 176.96 54.9161C177.96 55.4828 178.727 56.2661 179.26 57.2661C179.81 58.2494 180.085 59.3661 180.085 60.6161ZM177.735 60.1411C177.735 59.2744 177.544 58.5328 177.16 57.9161C176.777 57.2828 176.252 56.8078 175.585 56.4911C174.935 56.1578 174.21 55.9911 173.41 55.9911C172.26 55.9911 171.277 56.3578 170.46 57.0911C169.66 57.8244 169.202 58.8411 169.085 60.1411H177.735ZM185.363 56.5161C185.763 55.7328 186.33 55.1244 187.063 54.6911C187.813 54.2578 188.722 54.0411 189.788 54.0411V56.3911H189.188C186.638 56.3911 185.363 57.7744 185.363 60.5411V67.9911H183.088V54.2911H185.363V56.5161ZM215.555 54.0411C216.621 54.0411 217.571 54.2661 218.405 54.7161C219.238 55.1494 219.896 55.8078 220.38 56.6911C220.863 57.5744 221.105 58.6494 221.105 59.9161V67.9911H218.855V60.2411C218.855 58.8744 218.513 57.8328 217.83 57.1161C217.163 56.3828 216.255 56.0161 215.105 56.0161C213.921 56.0161 212.98 56.3994 212.28 57.1661C211.58 57.9161 211.23 59.0078 211.23 60.4411V67.9911H208.98V60.2411C208.98 58.8744 208.638 57.8328 207.955 57.1161C207.288 56.3828 206.38 56.0161 205.23 56.0161C204.046 56.0161 203.105 56.3994 202.405 57.1661C201.705 57.9161 201.355 59.0078 201.355 60.4411V67.9911H199.08V54.2911H201.355V56.2661C201.805 55.5494 202.405 54.9994 203.155 54.6161C203.921 54.2328 204.763 54.0411 205.68 54.0411C206.83 54.0411 207.846 54.2994 208.73 54.8161C209.613 55.3328 210.271 56.0911 210.705 57.0911C211.088 56.1244 211.721 55.3744 212.605 54.8411C213.488 54.3078 214.471 54.0411 215.555 54.0411ZM230.811 68.2161C229.528 68.2161 228.361 67.9244 227.311 67.3411C226.278 66.7578 225.461 65.9328 224.861 64.8661C224.278 63.7828 223.986 62.5328 223.986 61.1161C223.986 59.7161 224.286 58.4828 224.886 57.4161C225.503 56.3328 226.336 55.5078 227.386 54.9411C228.436 54.3578 229.611 54.0661 230.911 54.0661C232.211 54.0661 233.386 54.3578 234.436 54.9411C235.486 55.5078 236.311 56.3244 236.911 57.3911C237.528 58.4578 237.836 59.6994 237.836 61.1161C237.836 62.5328 237.52 63.7828 236.886 64.8661C236.27 65.9328 235.428 66.7578 234.361 67.3411C233.295 67.9244 232.111 68.2161 230.811 68.2161ZM230.811 66.2161C231.628 66.2161 232.395 66.0244 233.111 65.6411C233.828 65.2578 234.403 64.6828 234.836 63.9161C235.286 63.1494 235.511 62.2161 235.511 61.1161C235.511 60.0161 235.295 59.0828 234.861 58.3161C234.428 57.5494 233.861 56.9828 233.161 56.6161C232.461 56.2328 231.703 56.0411 230.886 56.0411C230.053 56.0411 229.286 56.2328 228.586 56.6161C227.903 56.9828 227.353 57.5494 226.936 58.3161C226.52 59.0828 226.311 60.0161 226.311 61.1161C226.311 62.2328 226.511 63.1744 226.911 63.9411C227.328 64.7078 227.878 65.2828 228.561 65.6661C229.245 66.0328 229.995 66.2161 230.811 66.2161ZM243.103 56.5161C243.503 55.7328 244.069 55.1244 244.803 54.6911C245.553 54.2578 246.461 54.0411 247.528 54.0411V56.3911H246.928C244.378 56.3911 243.103 57.7744 243.103 60.5411V67.9911H240.828V54.2911H243.103V56.5161ZM262.654 60.6161C262.654 61.0494 262.629 61.5078 262.579 61.9911H251.629C251.712 63.3411 252.17 64.3994 253.004 65.1661C253.854 65.9161 254.879 66.2911 256.079 66.2911C257.062 66.2911 257.879 66.0661 258.529 65.6161C259.195 65.1494 259.662 64.5328 259.929 63.7661H262.379C262.012 65.0828 261.279 66.1578 260.179 66.9911C259.079 67.8078 257.712 68.2161 256.079 68.2161C254.779 68.2161 253.612 67.9244 252.579 67.3411C251.562 66.7578 250.762 65.9328 250.179 64.8661C249.595 63.7828 249.304 62.5328 249.304 61.1161C249.304 59.6994 249.587 58.4578 250.154 57.3911C250.72 56.3244 251.512 55.5078 252.529 54.9411C253.562 54.3578 254.745 54.0661 256.079 54.0661C257.379 54.0661 258.529 54.3494 259.529 54.9161C260.529 55.4828 261.295 56.2661 261.829 57.2661C262.379 58.2494 262.654 59.3661 262.654 60.6161ZM260.304 60.1411C260.304 59.2744 260.112 58.5328 259.729 57.9161C259.345 57.2828 258.82 56.8078 258.154 56.4911C257.504 56.1578 256.779 55.9911 255.979 55.9911C254.829 55.9911 253.845 56.3578 253.029 57.0911C252.229 57.8244 251.77 58.8411 251.654 60.1411H260.304Z" fill="white"/>
</svg>
