<svg width="990" height="1185" viewBox="0 0 990 1185" fill="none" xmlns="http://www.w3.org/2000/svg">
<g filter="url(#filter0_d_0_1)">
<path d="M1019.86 -466.327C727.791 -476.213 838.254 -362.281 450.347 -237.317C62.4411 -112.354 -104.243 737.944 230.199 901.032C458.513 1012.37 601.134 706.014 854.143 720.539C1185.72 739.574 1161.39 1152.83 1484.36 1074.47C1908.68 971.506 1748.56 338.099 1527.6 152.462C1306.64 -33.1746 1328.22 -455.89 1019.86 -466.327Z" fill="#E6C699"/>
</g>
<path d="M1221.2 -653.699C952.079 -662.809 1053.86 -557.826 696.43 -442.68C338.996 -327.533 185.406 455.97 493.575 606.246C703.955 708.836 835.372 426.548 1068.51 439.932C1374.04 457.472 1351.62 838.269 1649.21 766.058C2040.2 671.185 1892.66 87.5346 1689.06 -83.5193C1485.46 -254.573 1505.35 -644.082 1221.2 -653.699Z" fill="#C46C22" fill-opacity="0.29"/>
<defs>
<filter id="filter0_d_0_1" x="0.595947" y="-466.926" width="1795.3" height="1651.27" filterUnits="userSpaceOnUse" color-interpolation-filters="sRGB">
<feFlood flood-opacity="0" result="BackgroundImageFix"/>
<feColorMatrix in="SourceAlpha" type="matrix" values="0 0 0 0 0 0 0 0 0 0 0 0 0 0 0 0 0 0 127 0" result="hardAlpha"/>
<feOffset dx="-2" dy="52"/>
<feGaussianBlur stdDeviation="24"/>
<feComposite in2="hardAlpha" operator="out"/>
<feColorMatrix type="matrix" values="0 0 0 0 0.403922 0 0 0 0 0.27451 0 0 0 0 0.231373 0 0 0 0.2 0"/>
<feBlend mode="normal" in2="BackgroundImageFix" result="effect1_dropShadow_0_1"/>
<feBlend mode="normal" in="SourceGraphic" in2="effect1_dropShadow_0_1" result="shape"/>
</filter>
</defs>
</svg>
